<svg version="1.1" id="Layer_1" xmlns="http://www.w3.org/2000/svg" xmlns:xlink="http://www.w3.org/1999/xlink" x="0px" y="0px"
	 width="100%" viewBox="0 0 192 192" enable-background="new 0 0 192 192" xml:space="preserve">
<path fill="#000000" opacity="1.000000" stroke="none" 
	d="
M137.586823,162.496613 
	C136.296982,167.919724 135.228439,172.969559 133.878128,177.942871 
	C132.909592,181.510056 130.727814,184.103012 126.620270,182.977219 
	C122.685158,181.898651 121.659439,178.853149 122.640938,175.087738 
	C125.158447,165.429596 127.678764,155.771866 130.279129,146.135864 
	C131.052521,143.269943 130.818390,141.326202 127.330864,140.718719 
	C108.116493,137.371887 89.558815,131.284500 70.578011,126.938225 
	C66.097397,125.912239 64.956841,127.634689 64.317230,131.303757 
	C62.139091,143.798462 58.603069,155.933655 54.447430,167.898911 
	C54.191776,168.634995 54.284866,169.584976 52.929756,169.818588 
	C51.236889,168.007217 51.984840,165.817932 52.481251,163.843231 
	C55.288544,152.675980 56.233459,141.188248 58.452271,129.927338 
	C59.330685,125.469200 56.812405,124.693588 53.507973,124.529915 
	C43.026752,124.010765 32.564480,123.049606 22.051046,123.215248 
	C20.350067,123.242043 18.410345,123.876610 16.617390,121.953766 
	C19.790327,119.880173 23.263123,119.934486 26.551460,119.884308 
	C35.713089,119.744545 44.885891,119.683464 54.040157,119.999870 
	C58.398167,120.150513 60.320728,118.900101 60.786610,114.325928 
	C62.084881,101.579056 63.744537,88.866478 65.442314,76.164520 
	C65.891808,72.801636 65.167297,71.273315 61.479214,71.087494 
	C50.507084,70.534683 39.578865,69.191483 28.570173,69.234718 
	C27.572739,69.238632 26.555136,69.257103 25.581102,69.080345 
	C22.912411,68.596062 21.444469,67.065567 21.701971,64.215912 
	C21.946352,61.511444 23.585400,60.638672 26.129469,60.592335 
	C35.316959,60.424999 44.445908,61.182011 53.532650,62.373039 
	C66.437714,64.064545 66.583153,63.977898 66.646873,51.236961 
	C66.683624,43.890190 65.858734,36.618767 65.051811,29.339802 
	C64.941780,28.347214 64.890770,27.348200 64.804153,26.352880 
	C64.480774,22.636749 65.339272,19.278641 69.584984,18.989923 
	C73.761909,18.705885 74.996094,21.805111 75.428185,25.563913 
	C76.840553,37.850124 76.282486,50.156113 75.972778,62.933498 
	C79.816681,63.202229 83.570518,63.656288 87.328568,63.694363 
	C103.993080,63.863209 120.590088,65.136063 137.174744,66.603577 
	C141.141998,66.954628 143.229080,66.466011 144.065506,61.484283 
	C146.819397,45.082233 150.156479,28.780718 151.737244,12.194650 
	C151.795456,11.583702 152.133698,10.999444 152.394180,10.251259 
	C154.781403,11.718713 154.026413,13.939086 154.163925,15.762426 
	C155.173370,29.146193 152.910034,42.338444 151.693207,55.591736 
	C151.617218,56.419456 151.425140,57.236622 151.351440,58.064434 
	C150.531799,67.269394 150.545349,67.122192 159.825745,67.759056 
	C168.291107,68.339973 176.738052,69.224564 185.176956,70.126457 
	C186.895752,70.310150 188.880875,70.073181 190.315186,71.631271 
	C189.294128,73.712425 187.407425,72.888649 185.902817,72.924011 
	C176.572540,73.143356 167.227112,73.241440 157.939102,72.271378 
	C153.231537,71.779709 151.056870,72.926720 150.736771,78.135948 
	C149.644241,95.915710 146.811935,113.488113 143.514084,130.982666 
	C142.942261,134.016159 143.759995,135.513672 147.243988,135.785034 
	C158.850906,136.689011 170.073334,140.338120 181.768372,140.797867 
	C184.388672,140.900864 185.411697,142.885101 185.636032,145.251389 
	C185.863998,147.656174 184.476013,148.931625 182.332352,149.574463 
	C178.616959,150.688644 175.019608,149.572830 171.505966,148.713013 
	C163.586685,146.775085 155.624283,145.099335 147.615295,143.577576 
	C143.307251,142.759003 141.059464,143.768814 140.442764,148.398392 
	C139.829376,153.003082 138.629990,157.529724 137.586823,162.496613 
M139.366470,100.963623 
	C140.438782,93.055183 141.476517,85.141815 142.600479,77.240730 
	C143.047409,74.099068 142.477203,72.090248 138.671402,72.041344 
	C119.042938,71.789093 99.428513,70.745300 79.785347,71.150627 
	C75.932381,71.230133 74.516525,72.793121 74.247200,76.460930 
	C73.552238,85.925255 71.438507,95.180939 69.875595,104.520332 
	C68.987564,109.826859 66.781616,114.978828 67.250656,120.357101 
	C70.161873,121.945023 73.083344,121.756622 75.831917,122.335480 
	C93.228577,125.999214 110.473457,130.382416 128.089798,133.022964 
	C131.769592,133.574539 133.202301,132.836456 133.840698,129.193527 
	C135.445358,120.036842 137.354111,110.933464 139.366470,100.963623 
z"/>
<path fill="#000000" opacity="1.000000" stroke="none" 
	d="
M149.449097,158.573181 
	C156.355713,151.858200 166.848587,151.578201 173.560379,157.713516 
	C178.335876,162.078827 181.884354,167.159454 182.665878,173.838181 
	C183.363068,179.796127 180.440216,184.862564 174.718719,186.513855 
	C166.009354,189.027512 157.900681,187.590897 150.751389,181.883301 
	C147.296524,179.125137 146.359360,175.868454 147.570206,170.305771 
	C148.635040,176.473373 151.639221,180.098511 156.441010,182.243530 
	C161.172180,184.356995 166.051422,184.663849 171.073547,183.613861 
	C177.849197,182.197250 180.437973,177.353745 177.827805,170.943832 
	C173.736740,160.897171 166.164398,156.466187 157.701675,159.127792 
	C156.072388,159.640198 154.560776,160.293564 153.631409,161.794586 
	C152.649551,163.380356 152.224380,166.230042 149.522156,164.629211 
	C147.091736,163.189331 148.208176,160.874405 149.449097,158.573181 
z"/>
<path fill="#000000" opacity="1.000000" stroke="none" 
	d="
M55.069038,39.360435 
	C58.147736,50.958591 54.825733,56.327629 43.360405,57.840298 
	C35.558537,58.869629 28.474964,56.619061 22.873301,50.869038 
	C19.731346,47.643871 19.398390,44.995186 21.132565,41.932953 
	C25.639116,52.740253 34.430622,56.976372 45.671436,53.756821 
	C51.543217,52.075047 53.864468,47.367588 51.573971,41.786579 
	C47.544674,31.968803 40.354378,27.134346 32.666870,29.095703 
	C30.037901,29.766447 27.498352,30.602814 26.459625,33.514801 
	C25.941610,34.967007 24.985518,35.827168 23.428869,35.306015 
	C21.603071,34.694752 21.522238,33.079887 21.903015,31.572250 
	C22.495300,29.227171 23.885328,27.492100 26.081013,26.253794 
	C33.731556,21.939085 43.510693,23.536703 49.235210,30.228456 
	C51.510529,32.888218 53.624020,35.677155 55.069038,39.360435 
z"/>
<path fill="#000000" opacity="1.000000" stroke="none" 
	d="
M97.455566,173.413055 
	C94.463203,168.641998 91.662880,164.166885 88.827934,159.636444 
	C83.154999,161.590012 79.074837,166.014450 72.374023,166.954453 
	C75.225021,162.876221 79.036789,161.459488 82.165039,159.416870 
	C85.863045,157.002228 86.827148,154.882980 84.068794,151.123032 
	C82.116051,148.461212 80.681999,145.397675 79.193375,142.424850 
	C78.360260,140.761093 76.622726,138.633240 79.240555,137.247742 
	C81.754601,135.917160 82.695435,138.255661 83.606857,140.021591 
	C85.658546,143.996857 87.663658,147.996155 89.805687,152.218185 
	C94.594955,150.847565 97.321579,147.079788 100.830673,144.475494 
	C101.895370,143.685318 102.790207,142.669495 103.832436,141.844986 
	C105.126854,140.820984 106.550514,139.443939 108.165482,141.126434 
	C109.975601,143.012253 108.601295,144.529327 107.115883,145.714005 
	C103.735382,148.410080 100.453583,151.303360 96.779648,153.537659 
	C93.009483,155.830490 92.916084,158.155228 94.889160,161.732224 
	C97.550499,166.557007 100.032944,171.534393 101.644783,177.290466 
	C98.916512,176.839539 98.600449,174.967621 97.455566,173.413055 
z"/>
<path fill="#000000" opacity="1.000000" stroke="none" 
	d="
M105.050568,30.894379 
	C106.083969,32.791027 106.963745,34.362232 107.992683,36.199852 
	C112.757767,33.505188 116.271713,29.768963 120.150307,26.491671 
	C121.813934,25.085941 123.734314,22.385715 125.987953,24.919394 
	C128.437180,27.672943 125.180580,28.903629 123.529137,30.205814 
	C120.270058,32.775616 116.972816,35.333683 113.470146,37.546429 
	C110.591049,39.365250 110.244789,41.251450 111.896828,44.086582 
	C114.864899,49.180244 117.563583,54.418549 118.620270,60.401493 
	C115.112457,57.987511 113.619675,54.109711 111.370270,50.816097 
	C110.434685,49.446205 109.499527,48.048813 108.791725,46.556030 
	C107.127892,43.046894 104.929634,43.146294 102.057114,45.133549 
	C98.729057,47.435944 95.296066,49.637089 90.087616,50.281071 
	C93.306473,46.236870 97.138535,44.843426 100.327057,42.647102 
	C103.567955,40.414696 104.302391,38.326694 101.947945,34.874229 
	C99.715576,31.600786 98.061516,27.923626 96.262329,24.368744 
	C95.556534,22.974205 95.320114,21.352356 97.005959,20.437201 
	C98.794182,19.466463 99.895958,20.871622 100.610748,22.133579 
	C102.163551,24.875084 103.482422,27.749094 105.050568,30.894379 
z"/>
<path fill="#000000" opacity="1.000000" stroke="none" 
	d="
M112.487396,110.764832 
	C118.799019,107.497780 119.844673,104.545364 117.163956,98.538010 
	C113.156349,89.557167 107.231857,85.343605 99.823349,86.266014 
	C96.759109,86.647537 93.922409,87.468376 92.604797,90.727699 
	C91.986160,92.257980 91.018127,93.425980 89.206436,92.645348 
	C87.474838,91.899239 87.568794,90.253395 87.902695,88.764336 
	C88.444923,86.346268 90.046387,84.675941 92.143494,83.469261 
	C96.894585,80.735458 101.908012,80.329277 107.069679,82.014603 
	C114.947441,84.586754 122.533691,95.333954 122.341187,103.612648 
	C122.230164,108.387314 120.179901,111.811150 115.500496,113.562859 
	C106.669838,116.868568 98.432953,115.661400 90.945198,110.170784 
	C87.646385,107.751839 84.826088,104.657104 86.380356,99.487885 
	C93.216011,110.888046 99.939568,113.788239 112.487396,110.764832 
z"/>
</svg>